# xmcd
#
# Track frame offsets:
#	150
#	20174
#	33876
#	48443
#	63766
#	83310
#	100296
#	118437
#	136379
#	152680
#	172704
#	186406
#	200973
#	216296
#	235840
#	252826
#	270967
#	288909
#	305210
#
# Disc length: 4330
#
# Revision: 2
# Processed by: cddbd v1.5.1PL2 Copyright (c) Steve Scherf et al.
# Submitted via: kTunes Pro (development) 1.0patch41
#
DISCID=0e10e813
DTITLE=Various Artist - PHC0512
DYEAR=2005
DGENRE=Country
TTITLE0=Shania Twain - Shoes
TTITLE1=Toby Keith - Big Blue Note
TTITLE2=George Strait - She Let Herself Go
TTITLE3=The Road Hammers - East Bound And Down
TTITLE4=Faith Hill - Like We Never Loved At All
TTITLE5=Big and Rich - Comin' To Your City
TTITLE6=Reba McEntire - You're Gonna Be 
TTITLE7=Chris Cagle - Miss Me Baby
TTITLE8=Deric Ruttan - Shine
TTITLE9=Shania Twain - Shoes (multiplex)
TTITLE10=Toby Keith - Big Blue Note (multiplex)
TTITLE11=George Strait - She Let Herself Go (multiplex)
TTITLE12=The Road Hammers - East Bound and Down (multiplex)
TTITLE13=Faith Hill - Like We Never Loved At All (multiplex)
TTITLE14=Big and Rich - Comin' To Your City (multiplex)
TTITLE15=Reba McEntire - You're Gonna Be (multiplex)
TTITLE16=Chris Cagle - Miss Me Baby (multiplex)
TTITLE17=Deric Ruttan - Shine (multiplex)
TTITLE18=Faith Hill - Tim McGraw - Like We Never Loved At All (Duet)
EXTD=
EXTT0=
EXTT1=
EXTT2=
EXTT3=
EXTT4=
EXTT5=
EXTT6=
EXTT7=
EXTT8=
EXTT9=
EXTT10=
EXTT11=
EXTT12=
EXTT13=
EXTT14=
EXTT15=
EXTT16=
EXTT17=
EXTT18=
PLAYORDER=
